HIERARCHY
ROOT Hips
{
	OFFSET -0.001795 -0.223333 0.028219
	CHANNELS 6 Xposition Yposition Zposition Zrotation Yrotation Xrotation 
	JOINT LeftUpLeg
	{
		OFFSET 0.069520 -0.091406 -0.006815
		CHANNELS 3 Zrotation Yrotation Xrotation
		JOINT LeftLeg
		{
			OFFSET 0.034277 -0.375199 -0.004496
			CHANNELS 3 Zrotation Yrotation Xrotation
			JOINT LeftFoot
			{
				OFFSET -0.013596 -0.397961 -0.043693
				CHANNELS 3 Zrotation Yrotation Xrotation
				JOINT LeftToe
				{
					OFFSET 0.026358 -0.055791 0.119288
					CHANNELS 3 Zrotation Yrotation Xrotation
					End Site
					{
						OFFSET 0.000000 0.000000 0.000000
					}
				}
			}
		}
	}
	JOINT RightUpLeg
	{
		OFFSET -0.067670 -0.090522 -0.004320
		CHANNELS 3 Zrotation Yrotation Xrotation
		JOINT RightLeg
		{
			OFFSET -0.038290 -0.382569 -0.008850
			CHANNELS 3 Zrotation Yrotation Xrotation
			JOINT RightFoot
			{
				OFFSET 0.015774 -0.398415 -0.042312
				CHANNELS 3 Zrotation Yrotation Xrotation
				JOINT RightToe
				{
					OFFSET -0.025372 -0.048144 0.123348
					CHANNELS 3 Zrotation Yrotation Xrotation
					End Site
					{
						OFFSET 0.000000 0.000000 0.000000
					}
				}
			}
		}
	}
	JOINT Spine
	{
		OFFSET -0.002533 0.108963 -0.026696
		CHANNELS 3 Zrotation Yrotation Xrotation
		JOINT Spine1
		{
			OFFSET 0.005487 0.135180 0.001092
			CHANNELS 3 Zrotation Yrotation Xrotation
			JOINT Spine2
			{
				OFFSET 0.001457 0.052922 0.025425
				CHANNELS 3 Zrotation Yrotation Xrotation
				JOINT Neck
				{
					OFFSET -0.002778 0.213870 -0.042857
					CHANNELS 3 Zrotation Yrotation Xrotation
					JOINT Head
					{
						OFFSET 0.005152 0.064970 0.051349
						CHANNELS 3 Zrotation Yrotation Xrotation
						End Site
						{
							OFFSET 0.000000 0.000000 0.000000
						}
					}
				}
				JOINT LeftShoulder
				{
					OFFSET 0.078845 0.121749 -0.034090
					CHANNELS 3 Zrotation Yrotation Xrotation
					JOINT LeftArm
					{
						OFFSET 0.090977 0.030469 -0.008868
						CHANNELS 3 Zrotation Yrotation Xrotation
						JOINT LeftForeArm
						{
							OFFSET 0.259612 -0.012772 -0.027456
							CHANNELS 3 Zrotation Yrotation Xrotation
							JOINT LeftHand
							{
								OFFSET 0.249234 0.008986 -0.001171
								CHANNELS 3 Zrotation Yrotation Xrotation
								End Site
								{
									OFFSET 0.000000 0.000000 0.000000
								}
							}
						}
					}
				}
				JOINT RightShoulder
				{
					OFFSET -0.081759 0.118833 -0.038615
					CHANNELS 3 Zrotation Yrotation Xrotation
					JOINT RightArm
					{
						OFFSET -0.096012 0.032551 -0.009143
						CHANNELS 3 Zrotation Yrotation Xrotation
						JOINT RightForeArm
						{
							OFFSET -0.253742 -0.013329 -0.021401
							CHANNELS 3 Zrotation Yrotation Xrotation
							JOINT RightHand
							{
								OFFSET -0.255298 0.007772 -0.005559
								CHANNELS 3 Zrotation Yrotation Xrotation
								End Site
								{
									OFFSET 0.000000 0.000000 0.000000
								}
							}
						}
					}
				}
			}
		}
	}
}
MOTION
Frames: 15
Frame Time: 0.050000
-0.096945 0.952020 0.068118 -6.261710 -1.663714 13.249840 6.770976 -0.531874 -7.774904 8.748483 0.473007 -12.274595 -1.528216 2.701221 14.802045 0.000000 0.000000 0.000000 -1.123140 0.827583 -8.262477 1.379616 -0.349972 -8.025962 -3.610565 -12.394226 14.108889 0.000000 0.000000 0.000000 -4.028461 0.272903 -3.641598 -7.242243 3.273219 -1.201426 7.760839 8.354787 0.482981 4.587605 -1.136790 -15.129007 0.000000 0.000000 0.000000 -7.286869 -6.517006 1.349976 -50.652312 -20.608784 3.051038 -83.827591 -57.056993 52.670884 0.000000 0.000000 0.000000 -7.622185 22.374618 7.017118 1.366619 48.683689 -1.522658 -25.011553 67.072782 -12.398224 0.000000 0.000000 0.000000 
-0.097913 0.951563 0.068252 -6.462305 -1.753200 13.314532 6.945634 -0.529289 -7.874152 8.959942 0.455537 -12.106564 -1.661875 2.367212 14.484462 0.000000 0.000000 0.000000 -0.833911 0.833306 -8.292365 1.235960 -0.347569 -8.100453 -3.662591 -12.404567 13.547718 0.000000 0.000000 0.000000 -3.858444 0.269615 -3.600611 -7.571205 3.437035 -0.881970 8.024023 9.492632 0.008648 4.434109 -1.000091 -14.851445 0.000000 0.000000 0.000000 -7.559088 -6.250746 1.089813 -50.621929 -19.956763 2.805849 -86.571345 -55.202499 52.436096 0.000000 0.000000 0.000000 -6.658123 23.292395 7.519796 2.541391 49.039328 -0.964538 -20.676770 67.939402 -9.533317 0.000000 0.000000 0.000000 
-0.098369 0.950989 0.068287 -6.316945 -1.339925 13.464233 6.780922 -0.551429 -8.178640 8.843055 0.439908 -11.983284 -2.028922 1.710348 14.108420 0.000000 0.000000 0.000000 -0.837188 0.860944 -8.581068 0.783904 -0.333020 -7.909826 -3.496982 -12.032487 13.387104 0.000000 0.000000 0.000000 -3.795505 0.268725 -3.689331 -7.681230 3.486019 -0.816316 7.977840 10.192564 0.034320 4.244868 -0.750694 -15.280389 0.000000 0.000000 0.000000 -7.312299 -5.636885 0.772558 -50.932865 -19.701003 2.672903 -89.196512 -53.678074 52.447397 0.000000 0.000000 0.000000 -5.957819 24.342184 8.042659 4.774262 48.838293 -0.033655 -14.417686 67.291596 -5.163676 0.000000 0.000000 0.000000 
-0.098658 0.950740 0.068418 -6.380616 -1.080228 13.441708 6.496810 -0.571329 -8.487801 9.257174 0.409982 -11.727522 -2.329910 1.241967 14.039102 0.000000 0.000000 0.000000 -0.602383 0.850089 -8.442812 0.570935 -0.318612 -7.616969 -3.914480 -12.723588 13.199628 0.000000 0.000000 0.000000 -3.665995 0.264788 -3.808655 -7.977187 3.637373 -0.471738 8.312158 10.849523 0.202465 3.779360 -0.442185 -15.129589 0.000000 0.000000 0.000000 -7.388576 -5.161035 0.497619 -50.789970 -20.111601 2.801374 -90.909638 -52.763424 52.483229 0.000000 0.000000 0.000000 -4.107746 25.208983 8.787752 7.073231 48.115538 0.793017 -7.337529 65.873489 -0.454141 0.000000 0.000000 0.000000 
-0.098832 0.950221 0.068696 -6.324571 -0.758156 13.560655 6.379879 -0.596041 -8.976085 9.423141 0.347164 -11.206138 -2.588191 0.645911 13.438953 0.000000 0.000000 0.000000 -0.545202 0.867323 -8.611513 0.472071 -0.309394 -7.396631 -4.452012 -13.660968 13.235000 0.000000 0.000000 0.000000 -3.773035 0.267184 -3.778824 -7.966967 3.638417 -0.290168 8.578586 11.207257 0.493723 3.260409 -0.068330 -15.362505 0.000000 0.000000 0.000000 -6.967379 -4.003188 0.065137 -51.150747 -20.544443 2.923674 -93.062583 -52.519868 53.704802 0.000000 0.000000 0.000000 -2.517025 25.542474 9.319683 11.436089 47.823288 2.366758 -1.619903 63.513691 3.071465 0.000000 0.000000 0.000000 
-0.099201 0.949745 0.069194 -6.064748 -0.060615 13.647488 6.172822 -0.629572 -9.473218 9.403314 0.288996 -10.725043 -2.719675 0.361359 12.999055 0.000000 0.000000 0.000000 -0.629745 0.891382 -8.877743 0.286716 -0.282958 -6.780056 -4.870390 -14.395473 13.750610 0.000000 0.000000 0.000000 -4.133683 0.273966 -3.969122 -7.736012 3.520647 -0.375239 8.935316 11.227174 1.392211 2.835404 0.250448 -15.642561 0.000000 0.000000 0.000000 -6.801793 -3.137593 -0.262489 -51.371469 -21.313278 3.130947 -93.388649 -52.650059 54.042187 0.000000 0.000000 0.000000 -0.343822 25.347272 9.791550 16.727956 46.790550 4.079206 3.286969 61.077406 5.786762 0.000000 0.000000 0.000000 
-0.099545 0.949430 0.069634 -5.948268 0.268530 13.599808 6.197349 -0.647274 -9.898040 9.313868 0.218318 -10.122199 -3.016770 -0.097290 12.965664 0.000000 0.000000 0.000000 -0.854910 0.903751 -9.056372 0.364052 -0.264365 -6.169027 -5.191918 -14.944591 13.958266 0.000000 0.000000 0.000000 -4.236039 0.273238 -3.898505 -7.768558 3.546985 -0.097440 9.263820 11.696632 1.528788 2.441093 0.490534 -15.331702 0.000000 0.000000 0.000000 -6.159412 -2.450922 -0.455750 -52.184272 -22.078999 3.421546 -92.442697 -53.485859 53.876253 0.000000 0.000000 0.000000 1.591799 24.801008 10.123632 22.834904 45.833635 6.061966 7.705166 57.839166 7.874630 0.000000 0.000000 0.000000 
-0.099994 0.949234 0.069741 -5.508918 0.553335 13.671703 5.764564 -0.692002 -10.469016 9.094345 0.098042 -9.034471 -2.852045 -0.216299 11.892030 0.000000 0.000000 0.000000 -1.326268 0.933179 -9.494236 0.183704 -0.237500 -5.669622 -5.407394 -15.364551 14.796037 0.000000 0.000000 0.000000 -4.729637 0.285212 -3.979331 -7.614581 3.480782 0.096184 9.636470 11.454262 2.030614 1.752859 0.857460 -15.088510 0.000000 0.000000 0.000000 -5.520742 -1.333480 -0.730934 -53.626801 -22.771376 3.715142 -90.094922 -54.841948 53.575272 0.000000 0.000000 0.000000 2.794831 24.678933 10.371728 28.153172 45.246426 7.746422 10.266973 54.403008 8.568539 0.000000 0.000000 0.000000 
-0.100533 0.949360 0.069367 -5.390897 0.506412 13.598381 5.907049 -0.682816 -10.435097 8.986819 0.092273 -8.966409 -3.252752 -0.677404 12.419971 0.000000 0.000000 0.000000 -1.398760 0.941504 -9.614838 -0.217330 -0.211620 -5.538054 -5.168528 -15.005594 15.304634 0.000000 0.000000 0.000000 -4.642588 0.281238 -3.839778 -7.646824 3.497787 0.126131 9.748885 11.600813 2.188548 1.483384 0.958373 -14.516307 0.000000 0.000000 0.000000 -5.216805 -0.807432 -0.870156 -54.784446 -23.496389 4.080263 -85.479454 -55.870848 50.964332 0.000000 0.000000 0.000000 3.697037 24.028363 10.339560 32.718101 44.461876 9.122298 12.161013 52.244848 9.103087 0.000000 0.000000 0.000000 
-0.101259 0.949652 0.068721 -5.162458 0.675719 13.886190 5.766011 -0.720174 -11.060405 8.745647 0.033178 -8.366846 -3.025064 -0.523135 11.825949 0.000000 0.000000 0.000000 -1.942143 0.962978 -10.022298 0.090906 -0.231007 -5.616985 -5.161494 -15.011333 15.762204 0.000000 0.000000 0.000000 -4.594813 0.284730 -3.974331 -7.420233 3.388266 0.108620 9.725640 10.933504 2.567961 1.033221 1.143872 -14.153878 0.000000 0.000000 0.000000 -4.414126 -0.595954 -0.745921 -55.438222 -23.250316 3.956847 -82.848394 -57.550569 50.875351 0.000000 0.000000 0.000000 2.903366 22.923755 9.599560 35.789424 43.034124 9.724641 14.124176 53.473251 10.411560 0.000000 0.000000 0.000000 
-0.102331 0.950578 0.068271 -5.333207 -0.097569 13.922456 5.840545 -0.697047 -10.890846 8.879328 0.031847 -8.417268 -2.390264 0.673795 12.399521 0.000000 0.000000 0.000000 -2.036501 0.980701 -10.216712 0.321557 -0.244579 -5.710864 -4.519047 -14.043047 15.939684 0.000000 0.000000 0.000000 -4.324184 0.282860 -3.977408 -7.104777 3.232521 -0.331952 9.625947 10.340312 3.442693 0.710276 1.254924 -14.002093 0.000000 0.000000 0.000000 -4.321093 0.609017 -1.108026 -55.619371 -22.503283 3.593598 -79.577647 -58.585855 49.842926 0.000000 0.000000 0.000000 1.862340 20.790578 8.360300 37.089810 42.173677 9.824402 18.208518 58.316811 13.969099 0.000000 0.000000 0.000000 
-0.103670 0.951154 0.068409 -5.441511 -0.180141 14.421814 6.180021 -0.706678 -11.477357 8.187436 -0.004353 -7.884433 -2.088501 1.012997 12.026707 0.000000 0.000000 0.000000 -2.152618 1.036761 -10.879902 0.886431 -0.291312 -6.307914 -4.208116 -13.611183 16.572337 0.000000 0.000000 0.000000 -3.866685 0.282825 -4.313078 -6.554881 2.984510 -0.248218 9.481108 9.091448 3.456795 -0.029699 1.579377 -13.861542 0.000000 0.000000 0.000000 -4.877454 1.316904 -1.404169 -55.075820 -20.061707 2.543277 -77.155654 -58.652006 48.603235 0.000000 0.000000 0.000000 -0.084168 18.002254 6.777413 36.763656 41.479617 9.482265 24.336732 66.874245 20.758574 0.000000 0.000000 0.000000 
-0.105324 0.952047 0.069050 -5.602869 -0.389738 14.590429 6.568316 -0.680124 -11.290330 7.810621 0.043579 -8.223112 -1.423224 2.321334 12.672253 0.000000 0.000000 0.000000 -2.311374 1.034135 -10.874842 1.731496 -0.341489 -6.905522 -4.112947 -13.445627 16.328797 0.000000 0.000000 0.000000 -3.900186 0.287624 -4.319194 -5.209224 2.358658 -0.813096 8.881300 7.849558 3.818289 -0.081049 1.439007 -12.983631 0.000000 0.000000 0.000000 -6.419276 1.892385 -1.831007 -53.157887 -17.109754 1.219134 -74.667093 -57.516270 46.270420 0.000000 0.000000 0.000000 -1.376964 15.506789 5.583260 33.014188 42.213869 8.398549 26.207195 79.137771 27.457290 0.000000 0.000000 0.000000 
-0.106930 0.952652 0.069557 -5.642467 -0.347521 14.630010 6.894825 -0.656777 -10.943914 7.488066 0.083906 -8.524281 -1.677836 2.256235 13.683989 0.000000 0.000000 0.000000 -2.155147 1.034393 -10.820458 1.535349 -0.350029 -7.497217 -4.193700 -13.725084 17.438051 0.000000 0.000000 0.000000 -3.892145 0.286937 -4.287160 -4.606098 2.083155 -1.126960 8.376066 6.823047 3.909859 0.115573 1.313766 -13.737420 0.000000 0.000000 0.000000 -5.813026 2.963016 -2.067127 -52.497906 -14.763377 0.176975 -76.840542 -55.938109 46.848691 0.000000 0.000000 0.000000 -3.049424 13.133700 4.534195 27.172520 45.190049 7.194197 -106.986887 83.634557 -93.697754 0.000000 0.000000 0.000000 
-0.108343 0.953267 0.069538 -5.497482 0.271387 14.453269 7.058601 -0.654260 -10.726682 6.736674 0.124182 -8.721544 -1.112586 3.136022 13.321774 0.000000 0.000000 0.000000 -2.244228 1.005394 -10.554919 1.890530 -0.369374 -7.625925 -4.327671 -13.762317 16.769708 0.000000 0.000000 0.000000 -4.297023 0.289412 -3.904223 -3.390515 1.533817 -2.291852 7.744329 6.658668 4.275624 0.705890 0.879109 -12.612757 0.000000 0.000000 0.000000 -5.297125 2.786315 -1.922666 -51.313114 -11.970699 -1.090534 -78.124668 -54.146405 45.984270 0.000000 0.000000 0.000000 -5.176679 10.879748 3.604686 16.948722 47.887135 4.077318 -112.201775 66.617180 -80.303567 0.000000 0.000000 0.000000 
